# xmcd CD database file
#
# Track frame offsets:
#	150
#	18860
#	37145
#	55862
#
# Disc length: 1018 seconds
#
# Revision: 0
# Processed by: cddbd v1.5PL3 Copyright (c) Steve Scherf et al.
# Submitted via: CDex 1.50
#
DISCID=2b03f804
DTITLE=パイ（松来未祐） - あなたのハートにはきゅん！どきゅん！
DYEAR=2004
DGENRE=JPop
TTITLE0=あなたのハートにはきゅん！どきゅん！
TTITLE1=雨のノスタルジア（remix version）
TTITLE2=あなたのハートにはきゅん！どきゅん！（カラオケ）
TTITLE3=雨のノスタルジア（カラオケ）
EXTD=YEAR: 2004
EXTT0=
EXTT1=
EXTT2=
EXTT3=
PLAYORDER=
